<mxfile host="app.diagrams.net" modified="2024-01-17T07:09:07.644Z" agent="Mozilla/5.0 (Macintosh; Intel Mac OS X 10_15_7) AppleWebKit/537.36 (KHTML, like Gecko) Chrome/120.0.0.0 Safari/537.36" version="22.1.20" etag="08eqWCN01udzLrcas2Ym" type="github">
  <diagram name="第 1 页" id="BjN0HSsCt5Mu86GL2Iaq">
    <mxGraphModel>
      <root>
        <mxCell id="0" />
        <mxCell id="1" parent="0" />
      </root>
    </mxGraphModel>
  </diagram>
</mxfile>
